<svg width="36" height="36" viewBox="0 0 36 36" fill="none" xmlns="http://www.w3.org/2000/svg">
<path d="M17.2917 22.7083C17.4912 22.9028 17.7285 23 18.0038 23C18.279 23 18.5139 22.9028 18.7083 22.7083L23.5833 17.875C23.8889 17.5694 23.9531 17.2083 23.776 16.7917C23.599 16.375 23.2986 16.1667 22.875 16.1667H13.0833C12.6597 16.1667 12.3663 16.375 12.2031 16.7917C12.0399 17.2083 12.1111 17.5694 12.4167 17.875L17.2917 22.7083ZM18.0057 35.7083C15.5575 35.7083 13.2571 35.2488 11.1047 34.3298C8.95226 33.4109 7.07147 32.1468 5.46233 30.5377C3.85319 28.9285 2.58914 27.0497 1.67016 24.901C0.751164 22.7525 0.291664 20.454 0.291664 18.0057C0.291664 15.5297 0.751164 13.2155 1.67016 11.063C2.58914 8.9106 3.85101 7.03603 5.45579 5.43933C7.06057 3.84261 8.93827 2.57854 11.0889 1.64713C13.2396 0.715709 15.5402 0.25 17.9908 0.25C20.4691 0.25 22.7862 0.714639 24.9419 1.64392C27.0976 2.57317 28.9728 3.83431 30.5674 5.42733C32.1621 7.02036 33.4245 8.89365 34.3547 11.0472C35.2849 13.2007 35.75 15.5183 35.75 18C35.75 20.4521 35.2843 22.7542 34.3529 24.9061C33.4215 27.0581 32.1574 28.937 30.5607 30.5427C28.964 32.1485 27.0913 33.4109 24.9427 34.3298C22.7941 35.2488 20.4818 35.7083 18.0057 35.7083ZM18 31.7917C21.8333 31.7917 25.0903 30.4532 27.7708 27.7762C30.4514 25.0992 31.7917 21.8404 31.7917 18C31.7917 14.1667 30.4514 10.9097 27.7708 8.22917C25.0903 5.54861 21.8264 4.20833 17.9792 4.20833C14.1597 4.20833 10.9097 5.54861 8.22916 8.22917C5.54861 10.9097 4.20833 14.1736 4.20833 18.0208C4.20833 21.8403 5.54683 25.0903 8.22383 27.7708C10.9008 30.4514 14.1596 31.7917 18 31.7917Z" fill="#B5332F"/>
</svg>
