<svg width="36" height="36" viewBox="0 0 36 36" fill="none" xmlns="http://www.w3.org/2000/svg">
<path d="M13.2917 17.2917C13.0972 17.4912 13 17.7285 13 18.0038C13 18.279 13.0972 18.5139 13.2917 18.7083L18.125 23.5833C18.4306 23.8889 18.7917 23.9531 19.2083 23.776C19.625 23.599 19.8333 23.2986 19.8333 22.875L19.8333 13.0833C19.8333 12.6597 19.625 12.3663 19.2083 12.2031C18.7917 12.0399 18.4306 12.1111 18.125 12.4167L13.2917 17.2917ZM0.291667 18.0058C0.291667 15.5575 0.751167 13.2571 1.67017 11.1047C2.58914 8.95227 3.8532 7.07148 5.46234 5.46234C7.07147 3.8532 8.95035 2.58914 11.099 1.67017C13.2475 0.751171 15.546 0.291671 17.9943 0.291671C20.4703 0.291671 22.7845 0.751171 24.937 1.67017C27.0894 2.58914 28.964 3.85102 30.5607 5.4558C32.1574 7.06057 33.4215 8.93828 34.3529 11.0889C35.2843 13.2396 35.75 15.5402 35.75 17.9908C35.75 20.4692 35.2854 22.7862 34.3561 24.9419C33.4268 27.0976 32.1657 28.9728 30.5727 30.5674C28.9796 32.1621 27.1063 33.4245 24.9528 34.3547C22.7993 35.2849 20.4817 35.75 18 35.75C15.5479 35.75 13.2458 35.2843 11.0939 34.3529C8.9419 33.4215 7.06304 32.1574 5.45729 30.5607C3.85151 28.964 2.58914 27.0913 1.67017 24.9427C0.751166 22.7941 0.291667 20.4818 0.291667 18.0058ZM4.20834 18C4.20833 21.8333 5.54683 25.0903 8.22383 27.7708C10.9008 30.4514 14.1596 31.7917 18 31.7917C21.8333 31.7917 25.0903 30.4514 27.7708 27.7708C30.4514 25.0903 31.7917 21.8264 31.7917 17.9792C31.7917 14.1597 30.4514 10.9097 27.7708 8.22917C25.0903 5.54862 21.8264 4.20834 17.9792 4.20834C14.1597 4.20834 10.9097 5.54684 8.22917 8.22384C5.54861 10.9008 4.20834 14.1596 4.20834 18Z" fill="white"/>
</svg>
