<svg width="60" height="47" viewBox="0 0 60 47" fill="none" xmlns="http://www.w3.org/2000/svg">
<path d="M3.625 46.0625C2.80208 46.0625 2.10677 45.7786 1.53906 45.2109C0.971354 44.6432 0.6875 43.9479 0.6875 43.125V35C0.6875 33.4635 1.20965 32.1732 2.25394 31.1289C3.29815 30.0846 4.5885 29.5625 6.125 29.5625H15.25C16.0476 29.5625 16.7158 29.6979 17.2544 29.9688C17.7931 30.2396 18.25 30.625 18.625 31.125C19.9167 33 21.5625 34.4583 23.5625 35.5C25.5625 36.5417 27.7008 37.0625 29.9773 37.0625C32.2562 37.0625 34.4026 36.5417 36.4166 35.5C38.4305 34.4583 40.125 33 41.5 31.125C41.796 30.6374 42.2137 30.2551 42.7533 29.9781C43.2928 29.701 43.9792 29.5625 44.8125 29.5625H53.9375C55.474 29.5625 56.7643 30.0846 57.8086 31.1289C58.8529 32.1732 59.375 33.4635 59.375 35V43.125C59.375 43.9479 59.0911 44.6432 58.5234 45.2109C57.9557 45.7786 57.2604 46.0625 56.4375 46.0625H43.9375C43.1146 46.0625 42.4193 45.7786 41.8516 45.2109C41.2839 44.6432 41 43.9479 41 43.125V38.25C39.4583 39.4167 37.7467 40.3333 35.8652 41C33.9837 41.6667 32.0287 42 30 42C28 42 26.0625 41.6771 24.1875 41.0312C22.3125 40.3854 20.6042 39.4583 19.0625 38.25V43.125C19.0625 43.9479 18.7786 44.6432 18.2109 45.2109C17.6432 45.7786 16.9479 46.0625 16.125 46.0625H3.625ZM30.0024 32.375C28.6675 32.375 27.4062 32.0729 26.2188 31.4688C25.0312 30.8646 24.0625 30 23.3125 28.875C22.4375 27.6667 21.4375 26.7708 20.3125 26.1875C19.1875 25.6042 17.9167 25.2083 16.5 25C18.0417 23.7917 20.1146 22.8229 22.7188 22.0938C25.3229 21.3646 27.75 21 30 21C32.2917 21 34.7396 21.3646 37.3438 22.0938C39.9479 22.8229 42.0417 23.7917 43.625 25C42.1667 25.2083 40.875 25.6042 39.75 26.1875C38.625 26.7708 37.6522 27.6626 36.8317 28.8629C36.0689 29.9543 35.0729 30.8125 33.8438 31.4375C32.6146 32.0625 31.3341 32.375 30.0024 32.375ZM9.99263 23.3125C7.95588 23.3125 6.22917 22.6017 4.8125 21.1801C3.39583 19.7586 2.6875 18.0086 2.6875 15.9301C2.6875 13.8934 3.39829 12.1667 4.81987 10.75C6.24142 9.33333 7.97058 8.625 10.0074 8.625C12.0441 8.625 13.7812 9.33579 15.2188 10.7574C16.6562 12.1789 17.375 13.9081 17.375 15.9449C17.375 18.0233 16.6538 19.7708 15.2114 21.1875C13.769 22.6042 12.0294 23.3125 9.99263 23.3125ZM49.9926 23.3125C47.9559 23.3125 46.2292 22.6017 44.8125 21.1801C43.3958 19.7586 42.6875 18.0086 42.6875 15.9301C42.6875 13.8934 43.3983 12.1667 44.8199 10.75C46.2414 9.33333 47.9706 8.625 50.0074 8.625C52.0441 8.625 53.7812 9.33579 55.2188 10.7574C56.6562 12.1789 57.375 13.9081 57.375 15.9449C57.375 18.0233 56.6538 19.7708 55.2114 21.1875C53.769 22.6042 52.0294 23.3125 49.9926 23.3125ZM29.9926 14.75C27.9559 14.75 26.2292 14.0392 24.8125 12.6176C23.3958 11.1961 22.6875 9.44608 22.6875 7.36762C22.6875 5.33087 23.3983 3.60417 24.8199 2.1875C26.2414 0.770833 27.9706 0.0625 30.0074 0.0625C32.0441 0.0625 33.7812 0.773291 35.2188 2.19487C36.6562 3.61642 37.375 5.34558 37.375 7.38238C37.375 9.46079 36.6538 11.2083 35.2114 12.625C33.769 14.0417 32.0294 14.75 29.9926 14.75Z" fill="white"/>
</svg>
