<svg width="44" height="44" viewBox="0 0 44 44" fill="none" xmlns="http://www.w3.org/2000/svg">
<path d="M32.3434 22.9C32.0478 22.9 31.7584 22.8417 31.475 22.725C31.1917 22.6084 30.9334 22.4334 30.7 22.2L21.8 13.3C21.5667 13.0667 21.3917 12.8061 21.275 12.5184C21.1584 12.2306 21.1 11.9389 21.1 11.6434C21.1 11.3145 21.1584 11.0167 21.275 10.75C21.3917 10.4834 21.5667 10.2334 21.8 10L30.7 1.10002C30.9334 0.866691 31.1939 0.691691 31.4817 0.575024C31.7695 0.458358 32.0611 0.400024 32.3567 0.400024C32.6856 0.400024 32.9834 0.458358 33.25 0.575024C33.5167 0.691691 33.7667 0.866691 34 1.10002L42.9 10C43.1334 10.2334 43.3084 10.4856 43.425 10.7567C43.5417 11.0278 43.6 11.3278 43.6 11.6567C43.6 11.9522 43.5417 12.2417 43.425 12.525C43.3084 12.8084 43.1334 13.0667 42.9 13.3L34 22.2C33.7667 22.4334 33.5145 22.6084 33.2434 22.725C32.9722 22.8417 32.6722 22.9 32.3434 22.9ZM3.05002 20.25C2.35836 20.25 1.78544 20.0229 1.33127 19.5688C0.877108 19.1146 0.650024 18.5584 0.650024 17.9V5.35002C0.650024 4.69169 0.877108 4.13544 1.33127 3.68127C1.78544 3.22711 2.35836 3.00002 3.05002 3.00002H15.55C16.2084 3.00002 16.7646 3.22711 17.2188 3.68127C17.6729 4.13544 17.9 4.69169 17.9 5.35002V17.9C17.9 18.5584 17.6729 19.1146 17.2188 19.5688C16.7646 20.0229 16.2084 20.25 15.55 20.25H3.05002ZM26.1 43.35C25.4417 43.35 24.8854 43.1229 24.4313 42.6688C23.9771 42.2146 23.75 41.6417 23.75 40.95V28.45C23.75 27.7917 23.9771 27.2354 24.4313 26.7813C24.8854 26.3271 25.4417 26.1 26.1 26.1H38.65C39.3084 26.1 39.8646 26.3271 40.3188 26.7813C40.7729 27.2354 41 27.7917 41 28.45V40.95C41 41.6417 40.7729 42.2146 40.3188 42.6688C39.8646 43.1229 39.3084 43.35 38.65 43.35H26.1ZM3.05002 43.35C2.35836 43.35 1.78544 43.1229 1.33127 42.6688C0.877108 42.2146 0.650024 41.6417 0.650024 40.95V28.45C0.650024 27.7917 0.877108 27.2354 1.33127 26.7813C1.78544 26.3271 2.35836 26.1 3.05002 26.1H15.55C16.2084 26.1 16.7646 26.3271 17.2188 26.7813C17.6729 27.2354 17.9 27.7917 17.9 28.45V40.95C17.9 41.6417 17.6729 42.2146 17.2188 42.6688C16.7646 43.1229 16.2084 43.35 15.55 43.35H3.05002ZM5.40002 15.55H13.15V7.70002H5.40002V15.55ZM32.5 17.35L38.05 11.8L32.5 6.20002L26.95 11.8L32.5 17.35ZM28.45 38.6H36.3V30.85H28.45V38.6ZM5.40002 38.6H13.15V30.85H5.40002V38.6Z" fill="#B5332F"/>
</svg>
