<svg width="50" height="55" viewBox="0 0 50 55" fill="none" xmlns="http://www.w3.org/2000/svg">
<path d="M6.8125 54.0625C5.19688 54.0625 3.81379 53.4873 2.66325 52.3368C1.51275 51.1862 0.9375 49.8031 0.9375 48.1875V11.8125C0.9375 10.1797 1.51275 8.78188 2.66325 7.61913C3.81379 6.45638 5.19688 5.875 6.8125 5.875H18.0625C18.5208 4.41667 19.375 3.21875 20.625 2.28125C21.875 1.34375 23.3333 0.875 25 0.875C26.6667 0.875 28.125 1.34375 29.375 2.28125C30.625 3.21875 31.4792 4.41667 31.9375 5.875H43.1875C44.8203 5.875 46.2181 6.45638 47.3809 7.61913C48.5436 8.78188 49.125 10.1797 49.125 11.8125V48.1875C49.125 49.8031 48.5436 51.1862 47.3809 52.3368C46.2181 53.4873 44.8203 54.0625 43.1875 54.0625H6.8125ZM6.8125 48.1875H43.1875V11.8125H6.8125V48.1875ZM14.9375 41.9375H27.5625C28.0938 41.9375 28.5391 41.7568 28.8984 41.3953C29.2578 41.0338 29.4375 40.5859 29.4375 40.0516C29.4375 39.5172 29.2578 39.0729 28.8984 38.7188C28.5391 38.3646 28.0938 38.1875 27.5625 38.1875H14.9375C14.4062 38.1875 13.9609 38.3682 13.6016 38.7297C13.2422 39.0912 13.0625 39.5391 13.0625 40.0734C13.0625 40.6078 13.2422 41.0521 13.6016 41.4062C13.9609 41.7604 14.4062 41.9375 14.9375 41.9375ZM14.9375 31.875H35.0625C35.5938 31.875 36.0391 31.6943 36.3984 31.3328C36.7578 30.9713 36.9375 30.5234 36.9375 29.9891C36.9375 29.4547 36.7578 29.0104 36.3984 28.6562C36.0391 28.3021 35.5938 28.125 35.0625 28.125H14.9375C14.4062 28.125 13.9609 28.3057 13.6016 28.6672C13.2422 29.0287 13.0625 29.4766 13.0625 30.0109C13.0625 30.5453 13.2422 30.9896 13.6016 31.3438C13.9609 31.6979 14.4062 31.875 14.9375 31.875ZM14.9375 21.8125H35.0625C35.5938 21.8125 36.0391 21.6318 36.3984 21.2703C36.7578 20.9088 36.9375 20.4609 36.9375 19.9266C36.9375 19.3922 36.7578 18.9479 36.3984 18.5938C36.0391 18.2396 35.5938 18.0625 35.0625 18.0625H14.9375C14.4062 18.0625 13.9609 18.2432 13.6016 18.6047C13.2422 18.9662 13.0625 19.4141 13.0625 19.9484C13.0625 20.4828 13.2422 20.9271 13.6016 21.2812C13.9609 21.6354 14.4062 21.8125 14.9375 21.8125ZM25 10.5625C25.7278 10.5625 26.3368 10.3174 26.8271 9.82706C27.3174 9.33681 27.5625 8.72779 27.5625 8C27.5625 7.27221 27.3174 6.66319 26.8271 6.17294C26.3368 5.68265 25.7278 5.4375 25 5.4375C24.2722 5.4375 23.6632 5.68265 23.1729 6.17294C22.6826 6.66319 22.4375 7.27221 22.4375 8C22.4375 8.72779 22.6826 9.33681 23.1729 9.82706C23.6632 10.3174 24.2722 10.5625 25 10.5625Z" fill="#B5332F"/>
</svg>
