<svg width="46" height="46" viewBox="0 0 46 46" fill="none" xmlns="http://www.w3.org/2000/svg">
<path d="M13.7 19.55C14.1667 18.65 14.6667 17.7417 15.2 16.825C15.7333 15.9084 16.3 15.0167 16.9 14.15L13.45 13.45L9.25 17.7L13.7 19.55ZM39.6 5.40005C36.2 5.70005 33.2833 6.45838 30.85 7.67505C28.4167 8.89172 25.9833 10.7167 23.55 13.15C22.55 14.15 21.55 15.4084 20.55 16.925C19.55 18.4417 18.5167 20.25 17.45 22.35L23.8 28.7C25.8667 27.6334 27.6667 26.6167 29.2 25.65C30.7333 24.6834 32 23.7 33 22.7C35.4333 20.2334 37.25 17.7834 38.45 15.35C39.65 12.9167 40.4167 10 40.75 6.60005C40.7833 6.40005 40.775 6.22505 40.725 6.07505C40.675 5.92505 40.6 5.78338 40.5 5.65005C40.3667 5.55005 40.2333 5.47505 40.1 5.42505C39.9667 5.37505 39.8 5.36672 39.6 5.40005ZM28.85 17.4C28.2167 16.7667 27.9 16 27.9 15.1C27.9 14.2 28.2167 13.4334 28.85 12.8C29.4833 12.2 30.2333 11.9 31.1 11.9C31.9667 11.9 32.7167 12.2 33.35 12.8C33.9833 13.4334 34.3 14.2 34.3 15.1C34.3 16 33.9833 16.7667 33.35 17.4C32.7167 18 31.9667 18.3 31.1 18.3C30.2333 18.3 29.4833 18 28.85 17.4ZM26.6 32.5L28.45 36.9001L32.7 32.7001L32.05 29.25C31.1833 29.8167 30.2833 30.3834 29.35 30.95C28.4167 31.5167 27.5 32.0334 26.6 32.5ZM45.9 2.70005C45.9 7.56672 45.1333 11.8417 43.6 15.525C42.0667 19.2084 39.8 22.5667 36.8 25.6C36.7 25.6667 36.6 25.75 36.5 25.85C36.4 25.95 36.3 26.0334 36.2 26.1L37.35 31.7C37.5167 32.5 37.475 33.2834 37.225 34.05C36.975 34.8167 36.5833 35.4834 36.05 36.05L29.35 42.7001C28.75 43.3 28.0417 43.5251 27.225 43.375C26.4083 43.225 25.85 42.75 25.55 41.9501L21.85 33.4001L12.8 24.3L4.2 20.65C3.4 20.35 2.93333 19.7834 2.8 18.95C2.66666 18.1167 2.9 17.4167 3.5 16.85L10.2 10.15C10.7667 9.58338 11.4083 9.18338 12.125 8.95005C12.8417 8.71672 13.6 8.68338 14.4 8.85005L20.05 9.95005L20.275 9.72505C20.3583 9.64172 20.45 9.56672 20.55 9.50005C23.6167 6.43338 26.975 4.14172 30.625 2.62505C34.275 1.10838 38.5333 0.333382 43.4 0.300049C43.7333 0.300049 44.0417 0.366715 44.325 0.500049C44.6083 0.633382 44.8667 0.816716 45.1 1.05005C45.3667 1.28338 45.5667 1.54172 45.7 1.82505C45.8333 2.10838 45.9 2.40005 45.9 2.70005ZM4.9 30.95C6.33333 29.5167 8.04166 28.8 10.025 28.8C12.0083 28.8 13.7 29.5 15.1 30.9C16.4667 32.2667 17.15 33.9501 17.15 35.9501C17.15 37.9501 16.45 39.6501 15.05 41.05C13.95 42.1501 12.25 43.05 9.95 43.75C7.65 44.4501 4.56666 44.9834 0.699997 45.35C1.06666 41.4834 1.59166 38.3834 2.275 36.05C2.95833 33.7167 3.83333 32.0167 4.9 30.95ZM8.25 34.3C7.81666 34.7667 7.475 35.4001 7.225 36.2001C6.975 37 6.71666 38.1334 6.45 39.6C7.91666 39.3334 9.05 39.0584 9.85 38.7751C10.65 38.4917 11.2667 38.1334 11.7 37.7001C12.2333 37.2667 12.4917 36.7084 12.475 36.0251C12.4583 35.3417 12.2167 34.7334 11.75 34.2001C11.2167 33.7334 10.6083 33.5084 9.925 33.5251C9.24166 33.5417 8.68333 33.8 8.25 34.3Z" fill="#B5332F"/>
</svg>
