<svg width="44" height="40" viewBox="0 0 44 40" fill="none" xmlns="http://www.w3.org/2000/svg">
<path d="M31.5813 35.1C33.6476 35.1 35.4173 34.3678 36.8904 32.9035C38.3634 31.4392 39.1 29.6714 39.1 27.6V25.35H24.1V27.6C24.1 29.6714 24.8303 31.4392 26.2909 32.9035C27.7516 34.3678 29.515 35.1 31.5813 35.1ZM24.1 21.35H29.6V14.45C28.0333 14.8833 26.7417 15.725 25.725 16.975C24.7083 18.225 24.1667 19.6833 24.1 21.35ZM33.6 21.35H39.1C39.0333 19.6833 38.4917 18.225 37.475 16.975C36.4583 15.725 35.1667 14.8833 33.6 14.45V21.35ZM31.6116 39.25C28.353 39.25 25.5947 38.1203 23.3368 35.8609C21.0789 33.6015 19.95 30.8478 19.95 27.6V22.1C19.95 18.8824 21.08 16.1363 23.34 13.8618C25.6 11.5872 28.3544 10.45 31.6032 10.45C34.852 10.45 37.6136 11.5872 39.8882 13.8618C42.1627 16.1363 43.3 18.8824 43.3 22.1V27.6C43.3 30.8478 42.1666 33.6015 39.8997 35.8609C37.6329 38.1203 34.8702 39.25 31.6116 39.25ZM5.45 35.25C4.14833 35.25 3.03958 34.792 2.12375 33.8762C1.20792 32.9604 0.75 31.8516 0.75 30.55V5.44995C0.75 4.13452 1.20792 3.014 2.12375 2.0884C3.03958 1.16277 4.14833 0.699951 5.45 0.699951H38.55C39.8654 0.699951 40.986 1.16277 41.9116 2.0884C42.8372 3.014 43.3 4.13452 43.3 5.44995V13.15C42.6392 12.3593 41.9156 11.6533 41.1294 11.032C40.3431 10.4106 39.4833 9.86662 38.55 9.39995V5.44995H5.45V30.55H17.35C17.45 31.4112 17.65 32.2348 17.95 33.0209C18.25 33.8069 18.6333 34.55 19.1 35.25H5.45Z" fill="#B5332F"/>
</svg>
